STARTFONT 2.3
FONT -FontForge-Permanent Marker-Book-R-Normal--10-100-72-72-P-57-ISO10646-1
SIZE 10 72 72  2
FONTBOUNDINGBOX 16 15 -3 -3
COMMENT "Generated by fontforge, http://fontforge.sourceforge.net"
COMMENT "Copyright (c) 2010 by Font Diner, Inc. All rights reserved."
STARTPROPERTIES 40
FOUNDRY "FontForge"
FAMILY_NAME "Permanent Marker"
WEIGHT_NAME "Book"
SLANT "R"
SETWIDTH_NAME "Normal"
ADD_STYLE_NAME ""
PIXEL_SIZE 10
POINT_SIZE 100
RESOLUTION_X 72
RESOLUTION_Y 72
SPACING "P"
AVERAGE_WIDTH 57
CHARSET_REGISTRY "ISO10646"
CHARSET_ENCODING "1"
FONTNAME_REGISTRY ""
CHARSET_COLLECTIONS "ISO10646-1"
BITS_PER_PIXEL 2
FONT_NAME "PermanentMarker-Regular"
FACE_NAME "Permanent Marker Regular"
COPYRIGHT "Copyright (c) 2010 by Font Diner, Inc. All rights reserved."
FONT_VERSION "1.001"
FONT_ASCENT 8
FONT_DESCENT 2
UNDERLINE_POSITION -1
UNDERLINE_THICKNESS 1
X_HEIGHT 5
CAP_HEIGHT 6
RAW_ASCENT 799
RAW_DESCENT 200
NORM_SPACE 4
RELATIVE_WEIGHT 40
RELATIVE_SETWIDTH 50
SUPERSCRIPT_X 0
SUPERSCRIPT_Y 4
SUPERSCRIPT_SIZE 6
SUBSCRIPT_X 0
SUBSCRIPT_Y 1
SUBSCRIPT_SIZE 6
AVG_LOWERCASE_WIDTH 56
AVG_UPPERCASE_WIDTH 67
ENDPROPERTIES
CHARS 230
STARTCHAR space
ENCODING 32
SWIDTH 370 0
DWIDTH 4 0
BBX 1 1 0 0
BITMAP
00
ENDCHAR
STARTCHAR exclam
ENCODING 33
SWIDTH 260 0
DWIDTH 3 0
BBX 3 7 0 0
BITMAP
28
38
34
74
20
50
E0
ENDCHAR
STARTCHAR quotedbl
ENCODING 34
SWIDTH 492 0
DWIDTH 5 0
BBX 5 6 1 2
BITMAP
1100
B740
EB00
DE00
CD00
4400
ENDCHAR
STARTCHAR numbersign
ENCODING 35
SWIDTH 703 0
DWIDTH 7 0
BBX 7 7 0 0
BITMAP
0630
0B74
7FF8
1DE0
BFF4
7680
7240
ENDCHAR
STARTCHAR dollar
ENCODING 36
SWIDTH 493 0
DWIDTH 5 0
BBX 6 7 0 0
BITMAP
0300
1BD0
BD40
6A00
0700
7D00
2800
ENDCHAR
STARTCHAR percent
ENCODING 37
SWIDTH 643 0
DWIDTH 6 0
BBX 7 7 0 0
BITMAP
1C14
7D74
7AD0
0740
1DD0
73A0
A290
ENDCHAR
STARTCHAR ampersand
ENCODING 38
SWIDTH 599 0
DWIDTH 6 0
BBX 6 6 0 0
BITMAP
0100
1740
BF90
BF90
0E00
0900
ENDCHAR
STARTCHAR quotesingle
ENCODING 39
SWIDTH 265 0
DWIDTH 3 0
BBX 2 6 1 2
BITMAP
10
B0
E0
D0
C0
40
ENDCHAR
STARTCHAR parenleft
ENCODING 40
SWIDTH 361 0
DWIDTH 4 0
BBX 5 11 0 -2
BITMAP
0040
0380
0F40
2D00
3800
7400
B000
B000
B000
7000
1000
ENDCHAR
STARTCHAR parenright
ENCODING 41
SWIDTH 361 0
DWIDTH 4 0
BBX 5 11 -1 -2
BITMAP
0400
0A00
0B00
0740
0700
0B00
0E00
1D00
7800
E000
8000
ENDCHAR
STARTCHAR asterisk
ENCODING 42
SWIDTH 673 0
DWIDTH 7 0
BBX 6 5 1 2
BITMAP
3A80
6F90
FF90
3B40
2140
ENDCHAR
STARTCHAR plus
ENCODING 43
SWIDTH 579 0
DWIDTH 6 0
BBX 5 5 0 0
BITMAP
0A00
1E40
BFC0
1D00
1800
ENDCHAR
STARTCHAR comma
ENCODING 44
SWIDTH 204 0
DWIDTH 2 0
BBX 3 4 -1 -2
BITMAP
10
74
B0
90
ENDCHAR
STARTCHAR hyphen
ENCODING 45
SWIDTH 609 0
DWIDTH 6 0
BBX 6 2 0 2
BITMAP
1540
BFD0
ENDCHAR
STARTCHAR period
ENCODING 46
SWIDTH 228 0
DWIDTH 2 0
BBX 2 3 0 -1
BITMAP
40
D0
40
ENDCHAR
STARTCHAR slash
ENCODING 47
SWIDTH 401 0
DWIDTH 4 0
BBX 6 7 -1 0
BITMAP
0060
00E0
0280
0A00
2C00
7400
7000
ENDCHAR
STARTCHAR zero
ENCODING 48
SWIDTH 686 0
DWIDTH 7 0
BBX 7 9 0 -1
BITMAP
0040
03D0
0FD0
3DA0
7474
B074
BAF4
7F90
0400
ENDCHAR
STARTCHAR one
ENCODING 49
SWIDTH 322 0
DWIDTH 3 0
BBX 3 8 0 0
BITMAP
10
34
38
38
38
74
B0
A0
ENDCHAR
STARTCHAR two
ENCODING 50
SWIDTH 650 0
DWIDTH 7 0
BBX 7 8 0 0
BITMAP
0500
7FD0
2AF0
03E0
1F80
3D14
7FFC
7E94
ENDCHAR
STARTCHAR three
ENCODING 51
SWIDTH 561 0
DWIDTH 6 0
BBX 6 7 0 0
BITMAP
BFD0
FFD0
2F40
2F80
06C0
6FC0
BA00
ENDCHAR
STARTCHAR four
ENCODING 52
SWIDTH 582 0
DWIDTH 6 0
BBX 6 8 0 -1
BITMAP
0180
6280
77E0
3FD0
0B00
0A00
0700
0100
ENDCHAR
STARTCHAR five
ENCODING 53
SWIDTH 580 0
DWIDTH 6 0
BBX 7 7 0 0
BITMAP
1EA0
7FF4
7D40
2F00
0780
6BC0
2E40
ENDCHAR
STARTCHAR six
ENCODING 54
SWIDTH 500 0
DWIDTH 5 0
BBX 5 7 0 0
BITMAP
1E00
2D00
7400
B600
EF80
FF40
F900
ENDCHAR
STARTCHAR seven
ENCODING 55
SWIDTH 576 0
DWIDTH 6 0
BBX 6 8 0 0
BITMAP
1000
BF40
ABC0
02C0
2BF0
7F90
0E00
1C00
ENDCHAR
STARTCHAR eight
ENCODING 56
SWIDTH 537 0
DWIDTH 5 0
BBX 6 8 0 0
BITMAP
0400
2FA0
77A0
7BD0
3F40
3B00
7B00
2E00
ENDCHAR
STARTCHAR nine
ENCODING 57
SWIDTH 529 0
DWIDTH 5 0
BBX 6 8 0 0
BITMAP
0100
1F40
7AC0
BFD0
6B80
0340
0340
0700
ENDCHAR
STARTCHAR colon
ENCODING 58
SWIDTH 241 0
DWIDTH 2 0
BBX 2 5 0 -1
BITMAP
B0
50
40
D0
40
ENDCHAR
STARTCHAR semicolon
ENCODING 59
SWIDTH 245 0
DWIDTH 2 0
BBX 3 7 -1 -2
BITMAP
04
2C
14
10
34
74
50
ENDCHAR
STARTCHAR less
ENCODING 60
SWIDTH 625 0
DWIDTH 6 0
BBX 6 5 0 0
BITMAP
0060
1BE0
FD00
6F40
0180
ENDCHAR
STARTCHAR equal
ENCODING 61
SWIDTH 586 0
DWIDTH 6 0
BBX 6 4 0 1
BITMAP
1540
7E90
5540
FA80
ENDCHAR
STARTCHAR greater
ENCODING 62
SWIDTH 634 0
DWIDTH 6 0
BBX 7 5 -1 0
BITMAP
1900
0BE0
02F8
2F90
6400
ENDCHAR
STARTCHAR question
ENCODING 63
SWIDTH 556 0
DWIDTH 6 0
BBX 6 8 0 0
BITMAP
0500
3FF0
26F0
06E0
1F40
1800
1000
7000
ENDCHAR
STARTCHAR at
ENCODING 64
SWIDTH 732 0
DWIDTH 7 0
BBX 7 9 0 -1
BITMAP
0040
02E0
0B64
399C
BBDC
DEE8
D550
2FF0
0140
ENDCHAR
STARTCHAR A
ENCODING 65
SWIDTH 702 0
DWIDTH 7 0
BBX 7 7 0 0
BITMAP
02C0
0FD0
2EE0
3DF4
BFF8
E5B4
D0A0
ENDCHAR
STARTCHAR B
ENCODING 66
SWIDTH 686 0
DWIDTH 7 0
BBX 7 8 0 0
BITMAP
0140
BFE0
F9F0
2FE0
2FE0
3874
7AF4
7F90
ENDCHAR
STARTCHAR C
ENCODING 67
SWIDTH 611 0
DWIDTH 6 0
BBX 6 7 0 0
BITMAP
02E0
1FE0
7E00
F400
E000
BE90
1BD0
ENDCHAR
STARTCHAR D
ENCODING 68
SWIDTH 588 0
DWIDTH 6 0
BBX 6 7 0 0
BITMAP
7900
7B40
71D0
70A0
B6D0
BF40
B400
ENDCHAR
STARTCHAR E
ENCODING 69
SWIDTH 626 0
DWIDTH 6 0
BBX 7 7 0 0
BITMAP
1BF4
7F90
3D40
7FD0
B500
FAE0
7F90
ENDCHAR
STARTCHAR F
ENCODING 70
SWIDTH 575 0
DWIDTH 6 0
BBX 7 8 0 0
BITMAP
0050
1BFC
7E50
2C00
BED0
FE80
B000
A000
ENDCHAR
STARTCHAR G
ENCODING 71
SWIDTH 789 0
DWIDTH 8 0
BBX 9 7 0 0
BITMAP
01F000
0BE000
2E5000
B83D00
F03F40
BBFE00
7F9000
ENDCHAR
STARTCHAR H
ENCODING 72
SWIDTH 695 0
DWIDTH 7 0
BBX 7 7 0 0
BITMAP
2034
3838
7838
79B8
BFF4
F9F0
F0A0
ENDCHAR
STARTCHAR I
ENCODING 73
SWIDTH 515 0
DWIDTH 5 0
BBX 8 8 -1 0
BITMAP
0050
0FFD
06D4
01C0
0280
0740
1B80
7E90
ENDCHAR
STARTCHAR J
ENCODING 74
SWIDTH 668 0
DWIDTH 7 0
BBX 8 7 0 0
BITMAP
6FFE
3AE5
00E0
01D0
02C0
EB80
BE00
ENDCHAR
STARTCHAR K
ENCODING 75
SWIDTH 776 0
DWIDTH 8 0
BBX 8 7 0 0
BITMAP
1E18
2DBD
3EF4
7F80
BFD4
B9FE
A015
ENDCHAR
STARTCHAR L
ENCODING 76
SWIDTH 632 0
DWIDTH 6 0
BBX 6 7 0 0
BITMAP
1D00
2C00
3800
7400
B000
FBE0
BEA0
ENDCHAR
STARTCHAR M
ENCODING 77
SWIDTH 973 0
DWIDTH 10 0
BBX 10 7 0 0
BITMAP
0B41D0
1F87E0
3FAFD0
7FFED0
B592C0
F002C0
900240
ENDCHAR
STARTCHAR N
ENCODING 78
SWIDTH 684 0
DWIDTH 7 0
BBX 7 7 0 0
BITMAP
0E28
1F3C
3E38
7E74
FFF4
F7E0
A180
ENDCHAR
STARTCHAR O
ENCODING 79
SWIDTH 744 0
DWIDTH 7 0
BBX 7 8 0 0
BITMAP
0040
02E0
0BF0
2E74
7828
B02C
BAF8
7F90
ENDCHAR
STARTCHAR P
ENCODING 80
SWIDTH 639 0
DWIDTH 6 0
BBX 7 8 0 0
BITMAP
0140
0BF0
1EB8
7DB8
BFF4
7A40
7400
7000
ENDCHAR
STARTCHAR Q
ENCODING 81
SWIDTH 744 0
DWIDTH 7 0
BBX 8 9 0 -1
BITMAP
0040
02E0
07F4
2E2C
B95D
E1FC
EBF4
7EB8
0014
ENDCHAR
STARTCHAR R
ENCODING 82
SWIDTH 646 0
DWIDTH 6 0
BBX 7 9 0 -1
BITMAP
0100
0780
1FE0
79F0
7FD0
BE00
BF90
A6F4
0010
ENDCHAR
STARTCHAR S
ENCODING 83
SWIDTH 576 0
DWIDTH 6 0
BBX 7 8 0 0
BITMAP
0050
1BF8
BE64
BE00
1680
02C0
6F80
7D00
ENDCHAR
STARTCHAR T
ENCODING 84
SWIDTH 607 0
DWIDTH 6 0
BBX 8 8 0 0
BITMAP
0014
AFFE
BF94
0B00
0E00
1D00
2C00
1C00
ENDCHAR
STARTCHAR U
ENCODING 85
SWIDTH 695 0
DWIDTH 7 0
BBX 7 7 0 0
BITMAP
1018
701C
742C
7478
76F0
7FD0
2E00
ENDCHAR
STARTCHAR V
ENCODING 86
SWIDTH 583 0
DWIDTH 6 0
BBX 7 7 0 0
BITMAP
6074
74F4
76D0
7B80
3F00
3D00
1C00
ENDCHAR
STARTCHAR W
ENCODING 87
SWIDTH 994 0
DWIDTH 10 0
BBX 11 7 0 0
BITMAP
181030
3C38B4
78B8F0
75F5E0
B7FBC0
BF6F80
290E00
ENDCHAR
STARTCHAR X
ENCODING 88
SWIDTH 623 0
DWIDTH 6 0
BBX 7 7 0 0
BITMAP
3428
3EF8
1FD0
2F40
7FC0
F1D0
D0D0
ENDCHAR
STARTCHAR Y
ENCODING 89
SWIDTH 493 0
DWIDTH 5 0
BBX 6 8 0 -1
BITMAP
71F0
77D0
3F80
2F00
2D00
7800
7000
1000
ENDCHAR
STARTCHAR Z
ENCODING 90
SWIDTH 664 0
DWIDTH 7 0
BBX 7 8 0 -1
BITMAP
2FF8
0AF8
02E0
1F80
BD00
FAF0
BF90
1400
ENDCHAR
STARTCHAR bracketleft
ENCODING 91
SWIDTH 387 0
DWIDTH 4 0
BBX 8 11 -1 -2
BITMAP
02FE
0395
0740
0B00
0A00
0D00
1D00
2C00
3800
7FD0
2540
ENDCHAR
STARTCHAR backslash
ENCODING 92
SWIDTH 352 0
DWIDTH 4 0
BBX 3 7 0 0
BITMAP
70
70
34
34
28
28
18
ENDCHAR
STARTCHAR bracketright
ENCODING 93
SWIDTH 403 0
DWIDTH 4 0
BBX 7 11 -3 -2
BITMAP
07FC
026C
0028
0038
0074
0070
00A0
00D0
01D0
BFC0
6500
ENDCHAR
STARTCHAR asciicircum
ENCODING 94
SWIDTH 518 0
DWIDTH 5 0
BBX 5 6 0 2
BITMAP
0100
0700
0F40
2F40
7680
D180
ENDCHAR
STARTCHAR underscore
ENCODING 95
SWIDTH 708 0
DWIDTH 7 0
BBX 8 3 -1 -1
BITMAP
0550
FFFE
1400
ENDCHAR
STARTCHAR grave
ENCODING 96
SWIDTH 754 0
DWIDTH 8 0
BBX 3 4 3 4
BITMAP
40
E0
78
04
ENDCHAR
STARTCHAR a
ENCODING 97
SWIDTH 581 0
DWIDTH 6 0
BBX 6 6 0 0
BITMAP
0640
1F40
3A80
7BE0
EAD0
D2C0
ENDCHAR
STARTCHAR b
ENCODING 98
SWIDTH 573 0
DWIDTH 6 0
BBX 6 7 0 -1
BITMAP
AF80
F6C0
3F40
3A80
76D0
BF40
0400
ENDCHAR
STARTCHAR c
ENCODING 99
SWIDTH 513 0
DWIDTH 5 0
BBX 5 6 0 0
BITMAP
0680
2F80
B800
D000
A500
2F80
ENDCHAR
STARTCHAR d
ENCODING 100
SWIDTH 497 0
DWIDTH 5 0
BBX 5 6 0 0
BITMAP
6400
6E00
6280
6280
BF00
B400
ENDCHAR
STARTCHAR e
ENCODING 101
SWIDTH 521 0
DWIDTH 5 0
BBX 6 6 0 0
BITMAP
1AD0
7E40
3A00
BA00
E540
BF80
ENDCHAR
STARTCHAR f
ENCODING 102
SWIDTH 455 0
DWIDTH 5 0
BBX 6 6 0 0
BITMAP
1BE0
7D40
3400
FF40
A400
9000
ENDCHAR
STARTCHAR g
ENCODING 103
SWIDTH 652 0
DWIDTH 7 0
BBX 7 6 0 0
BITMAP
0280
1F80
7D40
B0B4
E6F8
7E90
ENDCHAR
STARTCHAR h
ENCODING 104
SWIDTH 582 0
DWIDTH 6 0
BBX 6 6 0 0
BITMAP
1080
70E0
70E0
BBD0
FAC0
E180
ENDCHAR
STARTCHAR i
ENCODING 105
SWIDTH 320 0
DWIDTH 3 0
BBX 3 6 0 0
BITMAP
24
38
34
70
70
70
ENDCHAR
STARTCHAR j
ENCODING 106
SWIDTH 534 0
DWIDTH 5 0
BBX 7 6 0 0
BITMAP
6AE4
6B94
0380
0340
5B00
BD00
ENDCHAR
STARTCHAR k
ENCODING 107
SWIDTH 645 0
DWIDTH 6 0
BBX 7 6 0 0
BITMAP
1810
39F0
7F80
BF00
BBE4
A064
ENDCHAR
STARTCHAR l
ENCODING 108
SWIDTH 533 0
DWIDTH 5 0
BBX 5 6 0 0
BITMAP
2800
3800
7400
B000
EA40
BE80
ENDCHAR
STARTCHAR m
ENCODING 109
SWIDTH 814 0
DWIDTH 8 0
BBX 8 6 0 0
BITMAP
0D09
2F1F
3FBE
BBDA
E00D
9008
ENDCHAR
STARTCHAR n
ENCODING 110
SWIDTH 564 0
DWIDTH 6 0
BBX 6 6 0 0
BITMAP
1850
2DA0
7CD0
BDD0
EFC0
9640
ENDCHAR
STARTCHAR o
ENCODING 111
SWIDTH 628 0
DWIDTH 6 0
BBX 6 6 0 0
BITMAP
0380
1FC0
39D0
B060
E6E0
7F80
ENDCHAR
STARTCHAR p
ENCODING 112
SWIDTH 524 0
DWIDTH 5 0
BBX 6 6 0 0
BITMAP
1F80
2ED0
7AD0
BE40
B000
A000
ENDCHAR
STARTCHAR q
ENCODING 113
SWIDTH 625 0
DWIDTH 6 0
BBX 6 7 0 -1
BITMAP
0380
0BD0
7D70
F7B0
D7E0
BED0
0050
ENDCHAR
STARTCHAR r
ENCODING 114
SWIDTH 541 0
DWIDTH 5 0
BBX 6 7 0 -1
BITMAP
0A00
2F80
7AC0
BE40
BD00
9BD0
0040
ENDCHAR
STARTCHAR s
ENCODING 115
SWIDTH 463 0
DWIDTH 5 0
BBX 6 6 0 0
BITMAP
1BD0
BD50
BD00
0700
1B00
7900
ENDCHAR
STARTCHAR t
ENCODING 116
SWIDTH 479 0
DWIDTH 5 0
BBX 7 6 0 0
BITMAP
ABF4
AE50
0D00
1C00
2800
2800
ENDCHAR
STARTCHAR u
ENCODING 117
SWIDTH 584 0
DWIDTH 6 0
BBX 6 6 0 0
BITMAP
0020
7070
70B0
71D0
7F80
3E00
ENDCHAR
STARTCHAR v
ENCODING 118
SWIDTH 485 0
DWIDTH 5 0
BBX 6 6 0 0
BITMAP
6090
72D0
7780
3E00
3D00
2800
ENDCHAR
STARTCHAR w
ENCODING 119
SWIDTH 825 0
DWIDTH 8 0
BBX 9 6 0 0
BITMAP
240140
34E380
72D740
B7DA00
BFBD00
783800
ENDCHAR
STARTCHAR x
ENCODING 120
SWIDTH 506 0
DWIDTH 5 0
BBX 6 6 0 0
BITMAP
6090
7AD0
2F40
7E00
E740
C280
ENDCHAR
STARTCHAR y
ENCODING 121
SWIDTH 400 0
DWIDTH 4 0
BBX 5 6 0 0
BITMAP
62C0
7780
3E00
2C00
3400
7000
ENDCHAR
STARTCHAR z
ENCODING 122
SWIDTH 547 0
DWIDTH 5 0
BBX 6 7 0 -1
BITMAP
2FD0
1BE0
0B40
7D00
F680
FF80
1000
ENDCHAR
STARTCHAR braceleft
ENCODING 123
SWIDTH 448 0
DWIDTH 4 0
BBX 8 11 0 -2
BITMAP
02FE
0395
0700
0B00
BD00
B800
2C00
2800
3800
7FC0
2540
ENDCHAR
STARTCHAR bar
ENCODING 124
SWIDTH 332 0
DWIDTH 3 0
BBX 4 7 0 0
BITMAP
0D
1C
28
34
70
A0
D0
ENDCHAR
STARTCHAR braceright
ENCODING 125
SWIDTH 481 0
DWIDTH 5 0
BBX 8 11 -3 -2
BITMAP
07F8
066C
0028
0034
0078
002E
00B8
01D0
02C0
BF80
5500
ENDCHAR
STARTCHAR asciitilde
ENCODING 126
SWIDTH 581 0
DWIDTH 6 0
BBX 6 2 0 2
BITMAP
7D90
9B80
ENDCHAR
STARTCHAR uni00A0
ENCODING 160
SWIDTH 370 0
DWIDTH 4 0
BBX 1 1 0 0
BITMAP
00
ENDCHAR
STARTCHAR exclamdown
ENCODING 161
SWIDTH 260 0
DWIDTH 3 0
BBX 3 8 0 0
BITMAP
10
34
10
60
B0
A0
D0
D0
ENDCHAR
STARTCHAR cent
ENCODING 162
SWIDTH 488 0
DWIDTH 5 0
BBX 5 7 0 0
BITMAP
0600
0B80
7D00
E000
A500
3F40
3400
ENDCHAR
STARTCHAR sterling
ENCODING 163
SWIDTH 586 0
DWIDTH 6 0
BBX 6 7 0 0
BITMAP
0140
0FE0
2D00
BF80
3440
FFC0
1500
ENDCHAR
STARTCHAR currency
ENCODING 164
SWIDTH 509 0
DWIDTH 5 0
BBX 5 6 0 0
BITMAP
1000
7FC0
7B00
BB40
BF00
8100
ENDCHAR
STARTCHAR yen
ENCODING 165
SWIDTH 563 0
DWIDTH 6 0
BBX 6 6 0 0
BITMAP
25E0
2BC0
6F40
BF80
2C00
2400
ENDCHAR
STARTCHAR brokenbar
ENCODING 166
SWIDTH 301 0
DWIDTH 3 0
BBX 3 7 0 0
BITMAP
0C
1C
28
00
60
A0
D0
ENDCHAR
STARTCHAR section
ENCODING 167
SWIDTH 630 0
DWIDTH 6 0
BBX 6 9 0 -1
BITMAP
16A0
3EA0
3E00
3FD0
B5F0
3FD0
0BD0
6BD0
BE40
ENDCHAR
STARTCHAR dieresis
ENCODING 168
SWIDTH 754 0
DWIDTH 8 0
BBX 5 3 2 5
BITMAP
0100
A340
4000
ENDCHAR
STARTCHAR copyright
ENCODING 169
SWIDTH 614 0
DWIDTH 6 0
BBX 6 7 0 1
BITMAP
0100
1E90
36A0
A920
9930
9690
2A40
ENDCHAR
STARTCHAR ordfeminine
ENCODING 170
SWIDTH 454 0
DWIDTH 5 0
BBX 5 5 0 2
BITMAP
0400
2E00
7E00
BF40
9600
ENDCHAR
STARTCHAR guillemotleft
ENCODING 171
SWIDTH 566 0
DWIDTH 6 0
BBX 6 4 0 0
BITMAP
1CD0
BB80
E740
2580
ENDCHAR
STARTCHAR logicalnot
ENCODING 172
SWIDTH 698 0
DWIDTH 7 0
BBX 7 4 0 0
BITMAP
1540
FFF4
0070
00A0
ENDCHAR
STARTCHAR sfthyphen
ENCODING 173
SWIDTH 608 0
DWIDTH 6 0
BBX 6 2 0 2
BITMAP
1540
BFD0
ENDCHAR
STARTCHAR registered
ENCODING 174
SWIDTH 624 0
DWIDTH 6 0
BBX 7 6 0 1
BITMAP
1E90
36B0
6AA4
9E30
66E0
1A40
ENDCHAR
STARTCHAR macron
ENCODING 175
SWIDTH 754 0
DWIDTH 8 0
BBX 4 2 2 6
BITMAP
15
7F
ENDCHAR
STARTCHAR degree
ENCODING 176
SWIDTH 284 0
DWIDTH 3 0
BBX 3 3 1 5
BITMAP
74
E8
F4
ENDCHAR
STARTCHAR plusminus
ENCODING 177
SWIDTH 559 0
DWIDTH 6 0
BBX 7 7 -1 0
BITMAP
0180
02C0
1FF4
1B90
0340
1640
7FE0
ENDCHAR
STARTCHAR twosuperior
ENCODING 178
SWIDTH 386 0
DWIDTH 4 0
BBX 5 4 0 3
BITMAP
7E00
2D00
7F40
1500
ENDCHAR
STARTCHAR threesuperior
ENCODING 179
SWIDTH 366 0
DWIDTH 4 0
BBX 4 4 0 3
BITMAP
7E
2E
1F
14
ENDCHAR
STARTCHAR acute
ENCODING 180
SWIDTH 754 0
DWIDTH 8 0
BBX 3 4 3 4
BITMAP
04
38
E0
40
ENDCHAR
STARTCHAR mu
ENCODING 181
SWIDTH 569 0
DWIDTH 6 0
BBX 6 6 0 -1
BITMAP
1090
70A0
B1C0
BB40
FD00
C000
ENDCHAR
STARTCHAR paragraph
ENCODING 182
SWIDTH 729 0
DWIDTH 7 0
BBX 8 9 0 -1
BITMAP
0054
1BFE
7EEC
76A8
1FF4
07B8
0770
0A74
0010
ENDCHAR
STARTCHAR periodcentered
ENCODING 183
SWIDTH 226 0
DWIDTH 2 0
BBX 2 2 0 3
BITMAP
10
B0
ENDCHAR
STARTCHAR cedilla
ENCODING 184
SWIDTH 754 0
DWIDTH 8 0
BBX 4 4 2 -3
BITMAP
04
28
0B
7E
ENDCHAR
STARTCHAR onesuperior
ENCODING 185
SWIDTH 206 0
DWIDTH 2 0
BBX 3 4 0 3
BITMAP
30
34
70
10
ENDCHAR
STARTCHAR ordmasculine
ENCODING 186
SWIDTH 445 0
DWIDTH 4 0
BBX 5 5 0 2
BITMAP
0400
2E00
7B00
FB40
BE00
ENDCHAR
STARTCHAR guillemotright
ENCODING 187
SWIDTH 595 0
DWIDTH 6 0
BBX 6 4 0 0
BITMAP
A340
29D0
7A80
DA00
ENDCHAR
STARTCHAR onequarter
ENCODING 188
SWIDTH 705 0
DWIDTH 7 0
BBX 7 7 0 0
BITMAP
3090
31D0
7740
5E20
3AB4
B1F4
A0A0
ENDCHAR
STARTCHAR onehalf
ENCODING 189
SWIDTH 750 0
DWIDTH 8 0
BBX 7 7 0 0
BITMAP
3090
31D0
7740
5EA0
39B4
B0E4
A1F8
ENDCHAR
STARTCHAR threequarters
ENCODING 190
SWIDTH 818 0
DWIDTH 8 0
BBX 8 8 0 0
BITMAP
0400
7E1C
2D38
3EE0
1799
0E6D
2879
3424
ENDCHAR
STARTCHAR questiondown
ENCODING 191
SWIDTH 556 0
DWIDTH 6 0
BBX 6 9 -1 -1
BITMAP
0010
00B0
0010
0180
0B80
7E00
B990
7FE0
0140
ENDCHAR
STARTCHAR Agrave
ENCODING 192
SWIDTH 702 0
DWIDTH 7 0
BBX 7 11 0 0
BITMAP
0100
0380
01E0
0050
02C0
0FD0
2EE0
3DF4
BFF8
E5B4
D0A0
ENDCHAR
STARTCHAR Aacute
ENCODING 193
SWIDTH 702 0
DWIDTH 7 0
BBX 7 11 0 0
BITMAP
0010
00F0
02D0
0100
02C0
0FD0
2EE0
3DF4
BFF8
E5B4
D0A0
ENDCHAR
STARTCHAR Acircumflex
ENCODING 194
SWIDTH 702 0
DWIDTH 7 0
BBX 7 10 0 0
BITMAP
0180
07B0
0524
02C0
0FD0
2EE0
3DF4
BFF8
E5B4
D0A0
ENDCHAR
STARTCHAR Atilde
ENCODING 195
SWIDTH 702 0
DWIDTH 7 0
BBX 7 10 0 0
BITMAP
0144
07FC
0510
02C0
0FD0
2EE0
3DF4
BFF8
E5B4
D0A0
ENDCHAR
STARTCHAR Adieresis
ENCODING 196
SWIDTH 702 0
DWIDTH 7 0
BBX 7 10 0 0
BITMAP
0010
0B38
0100
02C0
0FD0
2EE0
3DF4
BFF8
E5B4
D0A0
ENDCHAR
STARTCHAR Aring
ENCODING 197
SWIDTH 702 0
DWIDTH 7 0
BBX 7 10 0 0
BITMAP
0050
01E0
02F0
02D0
0FD0
2EE0
3DF4
BFF8
E5B4
D0A0
ENDCHAR
STARTCHAR AE
ENCODING 198
SWIDTH 1153 0
DWIDTH 12 0
BBX 13 7 -1 0
BITMAP
0075BF80
03FBF900
0BBAD400
1E7FFD00
2FFF5000
757FAF00
707BFE00
ENDCHAR
STARTCHAR Ccedilla
ENCODING 199
SWIDTH 611 0
DWIDTH 6 0
BBX 6 10 0 -3
BITMAP
02E0
1FE0
7E00
F400
E000
BE90
2FD0
2C00
1B00
3E00
ENDCHAR
STARTCHAR Egrave
ENCODING 200
SWIDTH 626 0
DWIDTH 6 0
BBX 7 11 0 0
BITMAP
0100
0740
02D0
0050
1BF4
7F90
3D40
7FD0
B500
FAE0
7F90
ENDCHAR
STARTCHAR Eacute
ENCODING 201
SWIDTH 626 0
DWIDTH 6 0
BBX 7 11 0 0
BITMAP
0010
00E0
0380
0100
1BF4
7F90
3D40
7FD0
B500
FAE0
7F90
ENDCHAR
STARTCHAR Ecircumflex
ENCODING 202
SWIDTH 626 0
DWIDTH 6 0
BBX 7 11 0 0
BITMAP
0180
0BE0
0920
0000
1BF4
7F90
3D40
7FD0
B500
FAE0
7F90
ENDCHAR
STARTCHAR Edieresis
ENCODING 203
SWIDTH 626 0
DWIDTH 6 0
BBX 7 10 0 0
BITMAP
0010
0E74
0410
1BF4
7F90
3D40
7FD0
B500
FAE0
7F90
ENDCHAR
STARTCHAR Igrave
ENCODING 204
SWIDTH 515 0
DWIDTH 5 0
BBX 8 12 -1 0
BITMAP
0100
02C0
00F0
0010
0050
0FFD
06D4
01C0
0280
0740
1B80
7E90
ENDCHAR
STARTCHAR Iacute
ENCODING 205
SWIDTH 515 0
DWIDTH 5 0
BBX 8 12 -1 0
BITMAP
0004
002D
0074
0050
0050
0FFD
06D4
01C0
0280
0740
1B80
7E90
ENDCHAR
STARTCHAR Icircumflex
ENCODING 206
SWIDTH 515 0
DWIDTH 5 0
BBX 8 11 -1 0
BITMAP
0060
01E8
0248
0050
0FFD
06D4
01C0
0280
0740
1B80
7E90
ENDCHAR
STARTCHAR Idieresis
ENCODING 207
SWIDTH 515 0
DWIDTH 5 0
BBX 8 10 -1 0
BITMAP
0004
028D
0154
0FFD
06D4
01C0
0280
0740
1B80
7E90
ENDCHAR
STARTCHAR Eth
ENCODING 208
SWIDTH 656 0
DWIDTH 7 0
BBX 7 7 0 0
BITMAP
2E00
2BD0
69B0
FE34
79F0
3F90
3900
ENDCHAR
STARTCHAR Ntilde
ENCODING 209
SWIDTH 684 0
DWIDTH 7 0
BBX 8 10 0 0
BITMAP
0145
03FD
0514
0E28
1F3C
3E38
7E74
FFF4
F7E0
A180
ENDCHAR
STARTCHAR Ograve
ENCODING 210
SWIDTH 744 0
DWIDTH 7 0
BBX 7 11 0 0
BITMAP
0040
01E0
0074
0054
02E0
0BF0
2E74
7828
B02C
BAF8
7F90
ENDCHAR
STARTCHAR Oacute
ENCODING 211
SWIDTH 744 0
DWIDTH 7 0
BBX 7 11 0 0
BITMAP
0010
00F0
02D0
0140
02E0
0BF0
2E74
7828
B02C
BAF8
7F90
ENDCHAR
STARTCHAR Ocircumflex
ENCODING 212
SWIDTH 744 0
DWIDTH 7 0
BBX 7 11 0 0
BITMAP
0090
02B8
0218
0040
02E0
0BF0
2E74
7828
B02C
BAF8
7F90
ENDCHAR
STARTCHAR Otilde
ENCODING 213
SWIDTH 744 0
DWIDTH 7 0
BBX 8 10 0 0
BITMAP
0145
03FD
0154
02E0
0BF0
2E74
7828
B02C
BAF8
7F90
ENDCHAR
STARTCHAR Odieresis
ENCODING 214
SWIDTH 744 0
DWIDTH 7 0
BBX 7 10 0 0
BITMAP
0100
076C
0140
02E0
0BF0
2E74
7828
B02C
BAF8
7F90
ENDCHAR
STARTCHAR multiply
ENCODING 215
SWIDTH 490 0
DWIDTH 5 0
BBX 5 5 0 0
BITMAP
7280
2E40
3D00
AA00
8200
ENDCHAR
STARTCHAR Oslash
ENCODING 216
SWIDTH 744 0
DWIDTH 7 0
BBX 7 10 0 -2
BITMAP
0044
02FC
0BF8
2EF4
7AE8
BB6C
BFF8
7F90
3800
1000
ENDCHAR
STARTCHAR Ugrave
ENCODING 217
SWIDTH 695 0
DWIDTH 7 0
BBX 7 11 0 0
BITMAP
0400
0E00
0780
0040
1018
701C
742C
7478
76F0
7FD0
2E00
ENDCHAR
STARTCHAR Uacute
ENCODING 218
SWIDTH 695 0
DWIDTH 7 0
BBX 7 11 0 0
BITMAP
0010
00B4
01D0
0140
1018
701C
742C
7478
76F0
7FD0
2E00
ENDCHAR
STARTCHAR Ucircumflex
ENCODING 219
SWIDTH 695 0
DWIDTH 7 0
BBX 7 11 0 0
BITMAP
0180
07A0
0920
0000
1018
701C
742C
7478
76F0
7FD0
2E00
ENDCHAR
STARTCHAR Udieresis
ENCODING 220
SWIDTH 695 0
DWIDTH 7 0
BBX 7 10 0 0
BITMAP
0010
0A34
0410
1018
701C
742C
7478
76F0
7FD0
2E00
ENDCHAR
STARTCHAR Yacute
ENCODING 221
SWIDTH 493 0
DWIDTH 5 0
BBX 6 12 0 -1
BITMAP
01E0
0380
0100
0000
71F0
77D0
3F80
2F00
2D00
7800
7000
1000
ENDCHAR
STARTCHAR Thorn
ENCODING 222
SWIDTH 680 0
DWIDTH 7 0
BBX 7 7 0 0
BITMAP
2400
3FA0
79B8
B5B8
BFE0
B900
7000
ENDCHAR
STARTCHAR germandbls
ENCODING 223
SWIDTH 931 0
DWIDTH 9 0
BBX 10 6 0 0
BITMAP
1BD6F0
BDBE50
BD3F40
070180
1B0780
792E00
ENDCHAR
STARTCHAR agrave
ENCODING 224
SWIDTH 581 0
DWIDTH 6 0
BBX 6 9 0 0
BITMAP
0B40
02C0
0040
0640
1F40
3A80
7BE0
EAD0
D2C0
ENDCHAR
STARTCHAR aacute
ENCODING 225
SWIDTH 581 0
DWIDTH 6 0
BBX 6 10 0 0
BITMAP
0040
02C0
0B40
0400
0640
1F40
3A80
7BE0
EAD0
D2C0
ENDCHAR
STARTCHAR acircumflex
ENCODING 226
SWIDTH 581 0
DWIDTH 6 0
BBX 6 9 0 0
BITMAP
0240
1ED0
1850
0640
1F40
3A80
7BE0
EAD0
D2C0
ENDCHAR
STARTCHAR atilde
ENCODING 227
SWIDTH 581 0
DWIDTH 6 0
BBX 6 9 0 0
BITMAP
0510
1FF0
1440
0640
1F40
3A80
7BE0
EAD0
D2C0
ENDCHAR
STARTCHAR adieresis
ENCODING 228
SWIDTH 581 0
DWIDTH 6 0
BBX 6 9 0 0
BITMAP
0400
1DB0
0400
0640
1F40
3A80
7BE0
EAD0
D2C0
ENDCHAR
STARTCHAR aring
ENCODING 229
SWIDTH 581 0
DWIDTH 6 0
BBX 6 8 0 0
BITMAP
02C0
07D0
0780
1F40
3A80
7BE0
EAD0
D2C0
ENDCHAR
STARTCHAR ae
ENCODING 230
SWIDTH 948 0
DWIDTH 9 0
BBX 11 6 -1 0
BITMAP
0096B8
07EF90
0EEF90
2EFE90
7AFD60
A0EFE0
ENDCHAR
STARTCHAR ccedilla
ENCODING 231
SWIDTH 513 0
DWIDTH 5 0
BBX 5 9 0 -3
BITMAP
0680
2F80
B800
D000
A500
2F80
2800
1A00
2900
ENDCHAR
STARTCHAR egrave
ENCODING 232
SWIDTH 521 0
DWIDTH 5 0
BBX 6 9 0 0
BITMAP
2D00
0B00
0100
1AD0
7E40
3A00
BA00
E540
BF80
ENDCHAR
STARTCHAR eacute
ENCODING 233
SWIDTH 521 0
DWIDTH 5 0
BBX 6 10 0 0
BITMAP
0040
02C0
0B40
0400
1AD0
7E40
3A00
BA00
E540
BF80
ENDCHAR
STARTCHAR ecircumflex
ENCODING 234
SWIDTH 521 0
DWIDTH 5 0
BBX 6 9 0 0
BITMAP
0240
0ED0
0850
1AD0
7E40
3A00
BA00
E540
BF80
ENDCHAR
STARTCHAR edieresis
ENCODING 235
SWIDTH 521 0
DWIDTH 5 0
BBX 6 9 0 0
BITMAP
0400
1DB0
0400
1AD0
7E40
3A00
BA00
E540
BF80
ENDCHAR
STARTCHAR igrave
ENCODING 236
SWIDTH 320 0
DWIDTH 3 0
BBX 4 10 0 0
BITMAP
10
38
1E
05
24
38
34
70
70
70
ENDCHAR
STARTCHAR iacute
ENCODING 237
SWIDTH 320 0
DWIDTH 3 0
BBX 5 10 0 0
BITMAP
0040
02C0
0B40
0500
2400
3800
3400
7000
7000
7000
ENDCHAR
STARTCHAR icircumflex
ENCODING 238
SWIDTH 320 0
DWIDTH 3 0
BBX 5 9 0 0
BITMAP
1800
7B40
6240
2400
3800
3400
7000
7000
7000
ENDCHAR
STARTCHAR idieresis
ENCODING 239
SWIDTH 320 0
DWIDTH 3 0
BBX 5 9 0 0
BITMAP
0100
B380
0000
2400
3800
3400
7000
7000
7000
ENDCHAR
STARTCHAR eth
ENCODING 240
SWIDTH 541 0
DWIDTH 5 0
BBX 6 6 0 0
BITMAP
3800
3B40
B9C0
B5D0
7F40
7800
ENDCHAR
STARTCHAR ntilde
ENCODING 241
SWIDTH 564 0
DWIDTH 6 0
BBX 7 9 0 0
BITMAP
0144
0BF8
0450
1850
2DA0
7CD0
BDD0
EFC0
9640
ENDCHAR
STARTCHAR ograve
ENCODING 242
SWIDTH 628 0
DWIDTH 6 0
BBX 6 10 0 0
BITMAP
0100
0780
01D0
0050
0380
1FC0
39D0
B060
E6E0
7F80
ENDCHAR
STARTCHAR oacute
ENCODING 243
SWIDTH 628 0
DWIDTH 6 0
BBX 6 10 0 0
BITMAP
0040
02D0
0740
0500
0380
1FC0
39D0
B060
E6E0
7F80
ENDCHAR
STARTCHAR ocircumflex
ENCODING 244
SWIDTH 628 0
DWIDTH 6 0
BBX 6 9 0 0
BITMAP
0180
07A0
0920
0380
1FC0
39D0
B060
E6E0
7F80
ENDCHAR
STARTCHAR otilde
ENCODING 245
SWIDTH 628 0
DWIDTH 6 0
BBX 7 9 0 0
BITMAP
0144
0BF8
0450
0380
1FC0
39D0
B060
E6E0
7F80
ENDCHAR
STARTCHAR odieresis
ENCODING 246
SWIDTH 628 0
DWIDTH 6 0
BBX 7 9 0 0
BITMAP
0010
0A34
0400
0380
1FC0
39D0
B060
E6E0
7F80
ENDCHAR
STARTCHAR divide
ENCODING 247
SWIDTH 559 0
DWIDTH 6 0
BBX 5 6 0 0
BITMAP
0500
0A00
5A40
BA80
1800
2C00
ENDCHAR
STARTCHAR oslash
ENCODING 248
SWIDTH 632 0
DWIDTH 6 0
BBX 6 7 0 -1
BITMAP
03A0
1FE0
3AD0
BBA0
EEF0
7F80
3400
ENDCHAR
STARTCHAR ugrave
ENCODING 249
SWIDTH 584 0
DWIDTH 6 0
BBX 6 10 0 0
BITMAP
0400
0E00
0780
0140
0020
7070
70B0
71D0
7F80
3E00
ENDCHAR
STARTCHAR uacute
ENCODING 250
SWIDTH 584 0
DWIDTH 6 0
BBX 6 9 0 0
BITMAP
01E0
0380
0100
0020
7070
70B0
71D0
7F80
3E00
ENDCHAR
STARTCHAR ucircumflex
ENCODING 251
SWIDTH 584 0
DWIDTH 6 0
BBX 6 9 0 0
BITMAP
0240
0AD0
0860
0020
7070
70B0
71D0
7F80
3E00
ENDCHAR
STARTCHAR udieresis
ENCODING 252
SWIDTH 584 0
DWIDTH 6 0
BBX 6 9 0 0
BITMAP
0400
1DB0
0400
0020
7070
70B0
71D0
7F80
3E00
ENDCHAR
STARTCHAR yacute
ENCODING 253
SWIDTH 400 0
DWIDTH 4 0
BBX 6 10 0 0
BITMAP
0040
01D0
0780
0500
62C0
7780
3E00
2C00
3400
7000
ENDCHAR
STARTCHAR thorn
ENCODING 254
SWIDTH 579 0
DWIDTH 6 0
BBX 6 6 0 0
BITMAP
3000
7F90
75E0
BBD0
B900
6000
ENDCHAR
STARTCHAR ydieresis
ENCODING 255
SWIDTH 400 0
DWIDTH 4 0
BBX 6 9 0 0
BITMAP
0040
2CE0
0000
62C0
7780
3E00
2C00
3400
7000
ENDCHAR
STARTCHAR dotlessi
ENCODING 305
SWIDTH 320 0
DWIDTH 3 0
BBX 3 6 0 0
BITMAP
24
38
34
70
70
70
ENDCHAR
STARTCHAR Lslash
ENCODING 321
SWIDTH 632 0
DWIDTH 6 0
BBX 7 7 -1 0
BITMAP
0740
0B00
1F80
BE00
7C00
3EF8
2FA8
ENDCHAR
STARTCHAR lslash
ENCODING 322
SWIDTH 533 0
DWIDTH 5 0
BBX 6 6 -1 0
BITMAP
0A00
0E00
2F40
FD00
3A90
2FA0
ENDCHAR
STARTCHAR OE
ENCODING 338
SWIDTH 1212 0
DWIDTH 12 0
BBX 13 8 0 0
BITMAP
00400000
02E1BF40
0BF7F900
2E779400
782FFC00
B02F5000
BAFFAE00
7F9BF900
ENDCHAR
STARTCHAR oe
ENCODING 339
SWIDTH 1010 0
DWIDTH 10 0
BBX 11 6 0 0
BITMAP
0386B4
1FDF90
39EE80
A07E80
E6F950
7FAFD0
ENDCHAR
STARTCHAR Scaron
ENCODING 352
SWIDTH 576 0
DWIDTH 6 0
BBX 7 11 0 0
BITMAP
0520
0BB0
0280
0050
1BF8
BE64
BE00
1680
02C0
6F80
7D00
ENDCHAR
STARTCHAR scaron
ENCODING 353
SWIDTH 463 0
DWIDTH 5 0
BBX 6 10 0 0
BITMAP
1480
2EC0
0A00
0000
1BD0
BD50
BD00
0700
1B00
7900
ENDCHAR
STARTCHAR Ydieresis
ENCODING 376
SWIDTH 493 0
DWIDTH 5 0
BBX 6 12 0 -1
BITMAP
0400
1DB0
0400
0000
71F0
77D0
3F80
2F00
2D00
7800
7000
1000
ENDCHAR
STARTCHAR Zcaron
ENCODING 381
SWIDTH 664 0
DWIDTH 7 0
BBX 7 12 0 -1
BITMAP
0108
02E8
00A0
0000
2FF8
0AF8
02E0
1F80
BD00
FAF0
BF90
1400
ENDCHAR
STARTCHAR zcaron
ENCODING 382
SWIDTH 547 0
DWIDTH 5 0
BBX 6 11 0 -1
BITMAP
0520
0BB0
0280
0000
2FD0
1BE0
0B40
7D00
F680
FF80
1000
ENDCHAR
STARTCHAR circumflex
ENCODING 710
SWIDTH 754 0
DWIDTH 8 0
BBX 5 3 2 5
BITMAP
1800
7B00
5240
ENDCHAR
STARTCHAR caron
ENCODING 711
SWIDTH 754 0
DWIDTH 8 0
BBX 5 3 2 5
BITMAP
5100
7B40
1900
ENDCHAR
STARTCHAR breve
ENCODING 728
SWIDTH 754 0
DWIDTH 8 0
BBX 5 3 2 5
BITMAP
5100
7B40
1400
ENDCHAR
STARTCHAR dotaccent
ENCODING 729
SWIDTH 754 0
DWIDTH 8 0
BBX 2 3 3 5
BITMAP
10
70
10
ENDCHAR
STARTCHAR ring
ENCODING 730
SWIDTH 754 0
DWIDTH 8 0
BBX 3 3 3 5
BITMAP
34
E8
F4
ENDCHAR
STARTCHAR ogonek
ENCODING 731
SWIDTH 754 0
DWIDTH 8 0
BBX 4 4 3 -3
BITMAP
40
C0
A5
29
ENDCHAR
STARTCHAR tilde
ENCODING 732
SWIDTH 754 0
DWIDTH 8 0
BBX 5 3 2 5
BITMAP
1440
BF40
4500
ENDCHAR
STARTCHAR hungarumlaut
ENCODING 733
SWIDTH 754 0
DWIDTH 8 0
BBX 6 4 1 4
BITMAP
0410
1DB0
7AD0
1100
ENDCHAR
STARTCHAR endash
ENCODING 8211
SWIDTH 588 0
DWIDTH 6 0
BBX 5 2 0 2
BITMAP
1540
BFC0
ENDCHAR
STARTCHAR emdash
ENCODING 8212
SWIDTH 878 0
DWIDTH 9 0
BBX 8 2 0 2
BITMAP
5554
BFFE
ENDCHAR
STARTCHAR quoteleft
ENCODING 8216
SWIDTH 203 0
DWIDTH 2 0
BBX 2 4 1 4
BITMAP
50
B0
D0
40
ENDCHAR
STARTCHAR quoteright
ENCODING 8217
SWIDTH 199 0
DWIDTH 2 0
BBX 2 4 1 4
BITMAP
50
B0
E0
40
ENDCHAR
STARTCHAR quotesinglbase
ENCODING 8218
SWIDTH 204 0
DWIDTH 2 0
BBX 3 4 -1 -2
BITMAP
10
74
B0
90
ENDCHAR
STARTCHAR quotedblleft
ENCODING 8220
SWIDTH 410 0
DWIDTH 4 0
BBX 4 4 1 4
BITMAP
55
EB
DD
84
ENDCHAR
STARTCHAR quotedblright
ENCODING 8221
SWIDTH 425 0
DWIDTH 4 0
BBX 5 4 1 4
BITMAP
5100
B740
EE00
4400
ENDCHAR
STARTCHAR quotedblbase
ENCODING 8222
SWIDTH 430 0
DWIDTH 4 0
BBX 5 4 -1 -2
BITMAP
1100
7740
BB00
9900
ENDCHAR
STARTCHAR bullet
ENCODING 8226
SWIDTH 299 0
DWIDTH 3 0
BBX 3 2 0 2
BITMAP
74
B4
ENDCHAR
STARTCHAR ellipsis
ENCODING 8230
SWIDTH 768 0
DWIDTH 8 0
BBX 7 3 0 -1
BITMAP
4114
D728
4000
ENDCHAR
STARTCHAR perthousand
ENCODING 8240
SWIDTH 889 0
DWIDTH 9 0
BBX 9 7 0 0
BITMAP
1C1400
7D7400
7AD000
074000
1DD780
73AAC0
A29A40
ENDCHAR
STARTCHAR guilsinglleft
ENCODING 8249
SWIDTH 322 0
DWIDTH 3 0
BBX 3 4 0 0
BITMAP
1C
B4
E0
24
ENDCHAR
STARTCHAR guilsinglright
ENCODING 8250
SWIDTH 341 0
DWIDTH 3 0
BBX 3 4 0 0
BITMAP
A0
28
74
D0
ENDCHAR
STARTCHAR fraction
ENCODING 8260
SWIDTH 541 0
DWIDTH 5 0
BBX 6 7 0 0
BITMAP
00D0
02C0
0700
1D00
7400
A000
D000
ENDCHAR
STARTCHAR Euro
ENCODING 8364
SWIDTH 565 0
DWIDTH 6 0
BBX 5 6 0 0
BITMAP
02C0
1F80
3D00
FF40
7A40
1B80
ENDCHAR
STARTCHAR Delta
ENCODING 8710
SWIDTH 403 0
DWIDTH 4 0
BBX 6 6 -1 0
BITMAP
0BF0
0790
0340
0700
1A00
7F40
ENDCHAR
STARTCHAR minus
ENCODING 8722
SWIDTH 548 0
DWIDTH 5 0
BBX 5 2 0 2
BITMAP
5500
FF80
ENDCHAR
STARTCHAR approxequal
ENCODING 8776
SWIDTH 323 0
DWIDTH 3 0
BBX 3 7 0 0
BITMAP
28
38
78
74
B0
B0
70
ENDCHAR
STARTCHAR fi
ENCODING 64257
SWIDTH 810 0
DWIDTH 8 0
BBX 8 6 0 0
BITMAP
1BE9
7D4E
341D
FF5C
A41C
901C
ENDCHAR
STARTCHAR fl
ENCODING 64258
SWIDTH 1012 0
DWIDTH 10 0
BBX 10 6 0 0
BITMAP
1BE900
7D5D00
342C00
FF7800
A43A90
902FA0
ENDCHAR
STARTCHAR .notdef
ENCODING -1
SWIDTH 370 0
DWIDTH 4 0
BBX 1 1 0 0
BITMAP
00
ENDCHAR
ENDFONT
